<svg viewBox="0 0 120 120" xmlns="http://www.w3.org/2000/svg">
  <defs>
    <linearGradient id="iconGradient" x1="0%" y1="0%" x2="100%" y2="100%">
      <stop offset="0%" style="stop-color:#667eea;stop-opacity:1" />
      <stop offset="100%" style="stop-color:#764ba2;stop-opacity:1" />
    </linearGradient>
    <filter id="iconShadow" x="-50%" y="-50%" width="200%" height="200%">
      <feGaussianBlur in="SourceAlpha" stdDeviation="3"/>
      <feOffset dx="0" dy="4" result="offset"/>
      <feComponentTransfer>
        <feFuncA type="linear" slope="0.3"/>
      </feComponentTransfer>
      <feMerge> 
        <feMergeNode/>
        <feMergeNode in="SourceGraphic"/>
      </feMerge>
    </filter>
  </defs>
  
  <rect width="120" height="120" rx="24" fill="url(#iconGradient)"/>
  
  <g transform="translate(60, 60)">
    <path d="M -20,-15 Q -25,-20 -15,-25 L -10,-25 L -5,-30 L 5,-30 L 10,-25 L 15,-25 
             Q 25,-20 20,-15 L 20,-10 L 25,-5 L 25,5 L 20,10 L 20,15 
             Q 25,20 15,20 L 10,20 L 5,25 L -5,25 L -10,20 L -15,20 
             Q -25,15 -20,10 L -20,5 L -25,0 L -25,-10 L -20,-15 Z" 
          fill="none" 
          stroke="white" 
          stroke-width="2"
          filter="url(#iconShadow)"/>
    
    <rect x="-12" y="-7.5" width="24" height="15" rx="2" ry="2" 
          fill="rgba(255,255,255,0.1)" 
          stroke="white" 
          stroke-width="1.5"/>
    
    <rect x="-9" y="-4.5" width="5" height="4" rx="0.5" ry="0.5" 
          fill="white"/>
    
    <g stroke="white" stroke-width="0.8" opacity="0.6">
      <line x1="-9" y1="1.5" x2="-1" y2="1.5"/>
      <line x1="1" y1="1.5" x2="9" y2="1.5"/>
      <line x1="-9" y1="3.5" x2="-1" y2="3.5"/>
      <line x1="1" y1="3.5" x2="9" y2="3.5"/>
    </g>
    
    <circle cx="8" cy="-3.5" r="2" 
            fill="none" 
            stroke="white" 
            stroke-width="0.8" 
            opacity="0.7"/>
    <circle cx="10" cy="-3.5" r="2" 
            fill="none" 
            stroke="white" 
            stroke-width="0.8" 
            opacity="0.7"/>
    
    <line x1="-9" y1="5.5" x2="3" y2="5.5" 
          stroke="white" 
          stroke-width="0.8" 
          opacity="0.6"/>
    
    <g stroke="white" stroke-width="1" fill="none">
      <path d="M -12,0 L -18,0 M 12,0 L 18,0"/>
      <path d="M 0,-7.5 L 0,-12 M 0,7.5 L 0,12"/>
      <path d="M -8,-7.5 L -14,-9 M 8,-7.5 L 14,-9"/>
      <path d="M -8,7.5 L -14,9 M 8,7.5 L 14,9"/>
    </g>
    
    <g fill="white">
      <circle cx="-18" cy="0" r="1.5"/>
      <circle cx="18" cy="0" r="1.5"/>
      <circle cx="0" cy="-12" r="1.5"/>
      <circle cx="0" cy="12" r="1.5"/>
      <circle cx="-14" cy="-9" r="1"/>
      <circle cx="14" cy="-9" r="1"/>
      <circle cx="-14" cy="9" r="1"/>
      <circle cx="14" cy="9" r="1"/>
    </g>
  </g>
</svg>